<?xml version="1.0" standalone="no"?>
<!DOCTYPE svg PUBLIC "-//W3C//DTD SVG 20010904//EN"
 "http://www.w3.org/TR/2001/REC-SVG-20010904/DTD/svg10.dtd">
<svg version="1.0" xmlns="http://www.w3.org/2000/svg"
 width="260.000000pt" height="260.000000pt" viewBox="0 0 260.000000 260.000000"
 preserveAspectRatio="xMidYMid meet">
<metadata>
Created by potrace 1.11, written by Peter Selinger 2001-2013
</metadata>
<g transform="translate(0.000000,260.000000) scale(0.100000,-0.100000)"
fill="#000000" stroke="none">
<path d="M1195 2356 c-156 -73 -190 -269 -68 -391 24 -24 62 -50 85 -57 l43
-15 3 -96 3 -96 -294 -3 -294 -3 -36 -28 c-59 -45 -70 -76 -76 -217 l-6 -125
-43 -6 c-58 -8 -122 -54 -149 -109 -21 -42 -22 -60 -24 -281 -2 -232 -2 -238
22 -285 30 -61 90 -104 153 -111 l46 -6 0 -71 c0 -124 32 -190 107 -222 48
-21 1218 -21 1266 0 75 32 107 98 107 222 l0 71 46 6 c64 7 123 50 154 112 24
49 25 55 25 280 0 225 -1 231 -25 280 -30 60 -86 102 -150 113 l-45 7 -5 125
c-7 141 -17 172 -77 217 l-36 28 -294 3 -293 3 0 97 0 98 45 12 c85 23 165
134 165 229 0 50 -37 136 -72 170 -76 74 -190 93 -283 49z m25 -89 c0 -2 -12
-14 -27 -28 l-28 -24 24 28 c23 25 31 32 31 24z m185 -17 c10 -11 16 -20 13
-20 -3 0 -13 9 -23 20 -10 11 -16 20 -13 20 3 0 13 -9 23 -20z m-248 -82 c-3
-8 -6 -5 -6 6 -1 11 2 17 5 13 3 -3 4 -12 1 -19z m672 -557 c133 -11 121 54
121 -656 l0 -603 -31 -26 -31 -26 -584 0 c-601 0 -612 1 -641 39 -9 12 -12
160 -13 617 0 589 0 602 20 627 11 14 33 28 48 30 47 7 1023 6 1111 -2z"/>
<path d="M925 1394 c-152 -78 -153 -289 -2 -360 62 -28 108 -30 162 -5 120 54
158 204 78 309 -49 64 -168 93 -238 56z m143 -90 c58 -40 65 -119 14 -167 -36
-34 -71 -42 -115 -24 -40 17 -67 60 -67 108 0 47 56 99 107 99 21 0 49 -7 61
-16z"/>
<path d="M1503 1391 c-81 -38 -127 -141 -103 -231 21 -79 110 -149 191 -150
53 0 136 45 167 92 20 30 27 56 30 102 3 72 -19 120 -81 170 -49 40 -139 47
-204 17z m163 -105 c39 -39 44 -77 18 -127 -18 -36 -75 -63 -113 -54 -14 4
-38 18 -53 32 -72 68 -24 183 75 183 31 0 46 -7 73 -34z"/>
<path d="M889 797 c-50 -27 -96 -92 -106 -150 -15 -93 57 -202 149 -225 62
-16 672 -16 732 -1 83 21 156 110 156 191 0 79 -46 155 -114 187 -40 20 -60
21 -408 21 -363 0 -365 0 -409 -23z m281 -96 c0 -14 -3 -63 -7 -108 l-6 -83
-41 0 -41 0 -3 106 c-1 58 -1 108 2 112 2 4 25 6 50 4 42 -4 46 -6 46 -31z
m355 -85 l-7 -106 -37 0 -38 0 -7 77 c-12 143 -12 141 37 145 23 2 46 0 51 -4
5 -3 5 -54 1 -112z m-545 4 c0 -101 -2 -110 -19 -110 -29 0 -68 37 -81 75 -20
62 26 145 81 145 17 0 19 -9 19 -110z m370 83 c0 -16 -3 -65 -7 -110 l-6 -83
-41 0 -41 0 -3 110 -3 110 51 0 c48 0 50 -1 50 -27z m329 11 c37 -26 54 -77
41 -124 -11 -41 -50 -80 -81 -80 -17 0 -19 9 -19 110 0 99 2 110 18 110 10 0
28 -7 41 -16z"/>
</g>
</svg>
