<?xml version="1.0" standalone="no"?>
<!DOCTYPE svg PUBLIC "-//W3C//DTD SVG 20010904//EN"
 "http://www.w3.org/TR/2001/REC-SVG-20010904/DTD/svg10.dtd">
<svg version="1.0" xmlns="http://www.w3.org/2000/svg"
 width="173.000000pt" height="173.000000pt" viewBox="0 0 173.000000 173.000000"
 preserveAspectRatio="xMidYMid meet">
<metadata>
Created by potrace 1.11, written by Peter Selinger 2001-2013
</metadata>
<g transform="translate(0.000000,173.000000) scale(0.100000,-0.100000)"
fill="#000000" stroke="none">
<path d="M961 1436 c-6 -7 -23 -51 -37 -97 -67 -226 -303 -1047 -306 -1068 -3
-21 3 -26 41 -39 41 -14 45 -13 58 4 7 10 17 32 22 49 129 437 319 1119 315
1127 -6 9 -65 38 -77 38 -3 0 -10 -6 -16 -14z"/>
<path d="M423 1238 c-76 -67 -382 -377 -393 -399 -9 -16 13 -43 177 -207 103
-103 205 -200 225 -216 36 -27 37 -27 63 -10 46 30 49 49 13 91 -49 56 -53 59
-192 201 -70 72 -126 135 -125 141 2 5 67 74 144 153 224 230 210 213 192 238
-8 12 -24 28 -36 36 -19 14 -24 12 -68 -28z"/>
<path d="M1164 1245 l-37 -35 29 -32 c16 -18 97 -101 179 -186 83 -84 148
-156 146 -160 -2 -4 -82 -87 -178 -186 -191 -196 -189 -191 -117 -237 l32 -20
223 221 223 220 -40 43 c-82 89 -386 387 -404 397 -15 8 -26 3 -56 -25z"/>
</g>
</svg>
