<?xml version="1.0" standalone="no"?>
<!DOCTYPE svg PUBLIC "-//W3C//DTD SVG 20010904//EN"
 "http://www.w3.org/TR/2001/REC-SVG-20010904/DTD/svg10.dtd">
<svg version="1.0" xmlns="http://www.w3.org/2000/svg"
 width="607.000000pt" height="607.000000pt" viewBox="0 0 607.000000 607.000000"
 preserveAspectRatio="xMidYMid meet">
<metadata>
Created by potrace 1.11, written by Peter Selinger 2001-2013
</metadata>
<g transform="translate(0.000000,607.000000) scale(0.100000,-0.100000)"
fill="#000000" stroke="none">
<path d="M1209 5393 c-1 -71 -1 -131 0 -135 0 -5 -64 -8 -144 -8 l-145 0 0
-508 0 -509 63 -2 c34 -2 78 -4 97 -6 19 -2 56 -4 83 -4 l47 -1 0 -159 c0
-118 3 -160 13 -163 6 -3 41 -6 77 -7 35 -2 68 -5 72 -7 5 -3 8 -24 8 -47 0
-23 3 -66 6 -94 l7 -53 78 0 79 0 0 -155 0 -155 80 0 80 0 0 -135 0 -135 90 0
90 0 0 -115 0 -115 -135 0 -135 0 0 -423 0 -423 38 -3 c82 -6 120 -8 175 -10
l57 -1 0 -160 0 -160 -32 -1 c-81 -2 -129 -7 -135 -13 -10 -9 -9 -493 0 -503
5 -4 42 -9 83 -11 l74 -4 0 -79 0 -79 85 0 85 0 2 -47 c0 -27 1 -63 2 -81 1
-21 6 -32 16 -33 76 -4 502 0 507 5 5 5 9 47 12 124 l1 32 80 0 80 0 0 80 0
80 98 1 c53 0 204 2 334 2 204 2 238 4 239 17 1 8 2 29 4 45 1 17 3 49 4 73
l1 42 120 0 120 0 0 -120 0 -120 125 0 125 0 0 -50 0 -50 175 0 175 0 0 45 0
45 135 0 135 0 0 125 0 125 35 0 35 0 0 175 0 175 -79 0 -79 0 -5 38 c-6 49
-6 888 0 930 l5 32 159 0 159 0 0 90 0 90 135 0 135 0 0 130 0 130 140 0 140
0 0 140 0 140 105 0 105 0 0 140 0 140 95 0 95 0 0 140 0 140 70 0 70 0 0 120
0 120 35 1 c57 2 58 3 65 29 9 33 6 477 -3 486 -6 6 -45 10 -129 13 l-28 1 0
85 0 85 -265 0 -265 0 0 -35 0 -35 -115 0 -115 0 0 -90 0 -90 -140 0 -140 0 0
-70 0 -70 -135 0 -135 0 0 -95 0 -95 -115 0 -115 0 0 -90 0 -90 -125 0 -125 0
0 -140 0 -140 -135 0 -135 0 0 -110 0 -110 -150 0 -150 0 0 115 0 115 -347 1
c-192 1 -359 2 -373 4 -14 1 -49 3 -77 3 l-53 2 0 255 0 255 -90 0 -90 0 -1
43 c0 23 -2 98 -3 166 l-3 124 -54 2 c-30 2 -66 3 -81 4 l-28 1 0 125 0 125
-125 0 -125 0 0 130 0 130 -135 0 -135 0 0 130 0 130 -255 0 -255 0 -1 -127z"/>
</g>
</svg>
